# xmcd
#
# Track frame offsets: 
#        150
#        10638
#        22107
#        40580
#        58485
#        70502
#        82989
#        98581
#        110155
#        117656
#
# Disc length: 1733 seconds
#
# Revision: 0
# Processed by: cddbd v1.5.1PL0 Copyright (c) Steve Scherf et al.
# Submitted via: ExactAudioCopy v0.95b2
#
DISCID=7d06c30a
DTITLE=Willie Nelson - Willie Nelson and Friends
DYEAR=2004
DGENRE=Country
TTITLE0=Blue Eyes Crying in the Rain
TTITLE1=Just Out of Reach (Of My Two Empty Arms)
TTITLE2=Night Life
TTITLE3=Crazy
TTITLE4=Waltz Across Texas
TTITLE5=Half a Man
TTITLE6=Mamas Don't Let Your Babies Grow Up to Be Cowboys
TTITLE7=Hello Walls
TTITLE8=I Gotta Get Drunk
TTITLE9=You Nearly Lose Your Mind
EXTD=
EXTT0=
EXTT1=
EXTT2=
EXTT3=
EXTT4=
EXTT5=
EXTT6=
EXTT7=
EXTT8=
EXTT9=
PLAYORDER=
